<?xml version="1.0" encoding="utf-8"?>
<!-- Generator: Adobe Illustrator 19.2.0, SVG Export Plug-In . SVG Version: 6.00 Build 0)  -->
<svg version="1.1" id="Layer_1" xmlns="http://www.w3.org/2000/svg" xmlns:xlink="http://www.w3.org/1999/xlink" x="0px" y="0px"
	 viewBox="0 0 76 82" enable-background="new 0 0 76 82" xml:space="preserve">
<g>
	<g>
		<g>
			<path fill="#FFFFFF" d="M38.1,82c-4.4,0-7.9-2.7-9.7-6.1H14.1C7,76,1,69.9,1,62.7c0-4.9,2.2-9,5.9-11.3v-6.2
				C2.7,43.4,0,39.2,0,34.3c0-5.2,3.4-9.8,8.2-11.4C11.8,9.5,24,0,38.1,0C52.3,0,64.4,9.5,68,23c4.6,1.7,8,6.3,8,11.3
				c0,4.8-2.9,9.1-7.1,11v6.4c3.3,2.3,6.1,6.4,6.1,11C75,70,69.2,76,62.1,76H47.8C46.1,79.3,42.5,82,38.1,82z M14.5,30.1l-2.7,0.2
				c-2.1,0.2-3.8,2-3.8,4.1c0,2.1,1.4,3.8,3.4,4l3.5,0.4V57l-2.8,0.9C9.5,58.6,9,60.9,9,62.7c0,2.8,2.4,5.2,5.1,5.2h20.5l0.5,3.4
				c0.2,1.2,1.6,2.7,3,2.7s2.8-1.5,3-2.7l0.5-3.4h20.5c2.7,0,4.9-2.3,4.9-5.2c0-2.1-1.9-4.3-3.7-5l-2.5-1V38.8l3.5-0.4
				c2.1-0.3,3.6-2,3.6-4c0-2.1-2-3.9-3.7-4.1L61.4,30l-3.3,1.1c-2.9-5.4-7.7-9.3-13.4-11.1l-1.7-0.5l-0.8-0.1
				c-1.9-0.3-3-0.4-4.4-0.4c-1.7,0-3.4,0.2-3.8,0.3l-4.5,1.3c-5.1,1.9-9.2,5.6-11.9,10.6L14.5,30.1z"/>
		</g>
	</g>
	<g>
		<g>
			<path fill="#445D95" d="M64.9,54v-5.6v-6.1c4-0.5,7.1-3.9,7.1-8c0-4.2-3.6-7.7-7.4-8C62.4,13.6,51.3,4,38.1,4
				c-13.2,0-24.3,9.6-26.6,22.3c-4.1,0.3-7.5,3.8-7.5,8c0,4.1,2.9,7.5,6.9,8v6.1V54c-4,1.2-5.9,4.8-5.9,8.7c0,5,4.2,9.2,9.1,9.2
				h17.1c0.5,3,3.4,6.1,6.9,6.1s6.4-3.1,6.9-6.1h17.1c5,0,8.9-4.2,8.9-9.2C71,58.8,67.9,55.3,64.9,54z M32.9,8.6
				c1-0.4,3.3-0.6,5-0.6s3,0.2,5,0.6v6.9c-2-0.3-3.3-0.5-5-0.5c-1.7,0-4,0.2-5,0.5V8.6z M29.9,9.4v6.7c-7,2.1-12.4,6.8-15.8,13
				C15.4,20,21.9,12.5,29.9,9.4z M45.9,16.2V9.4c8,3,14.5,10.6,15.8,19.7C58.3,23,52.9,18.3,45.9,16.2z"/>
		</g>
	</g>
</g>
<g>
	<path fill="#FFEEDE" d="M59.9,42.4C59.9,51.3,53,59,44.1,59h-12c-8.8,0-16.2-7.7-16.2-16.6v0c0-12.3,9.8-22.2,22-22.2
		S59.9,30.1,59.9,42.4L59.9,42.4z"/>
</g>
<g opacity="0.33">
	<path fill="#302A66" d="M37.9,20.2c-12.2,0-22,9.9-22,22.2v0c0,1.1,0.3,2.2,0.5,3.3c1.8-10.5,10.9-18.5,21.8-18.5
		c10.9,0,19.8,8,21.5,18.4c0.2-1,0.2-2.1,0.2-3.2v0C59.9,30.1,50,20.2,37.9,20.2z"/>
</g>
<g>
	<path fill="#445D95" d="M44.1,45h-12c-0.6,0-1,0.2-1,0.7c0,3.9,3.1,6.9,7,6.9c3.9,0,7-3,7-6.9C45.1,45.2,44.7,45,44.1,45z"/>
</g>
<g>
	<ellipse fill="#445D95" cx="47.1" cy="35.3" rx="3" ry="3"/>
</g>
<g>
	<ellipse fill="#445D95" cx="29.1" cy="35.3" rx="3" ry="3"/>
</g>
<g>
	<path fill="#F8B721" d="M32.9,8.6c1-0.4,3.3-0.6,5-0.6s3,0.2,5,0.6v6.9c-2-0.3-3.3-0.5-5-0.5c-1.7,0-4,0.2-5,0.5V8.6z"/>
</g>
<g>
	<path fill="#F8B721" d="M29.9,9.4v6.7c-7,2.1-12.4,6.8-15.8,13C15.4,20,21.9,12.5,29.9,9.4z"/>
</g>
<g>
	<path fill="#F8B721" d="M45.9,16.2V9.4c8,3,14.5,10.6,15.8,19.7C58.3,23,52.9,18.3,45.9,16.2z"/>
</g>
<g>
	<path fill="#F8B721" d="M10.9,30.9v8.3c-2-0.5-3.9-2.5-3.9-4.9c0-2.5,1.7-4.5,4-4.9C11,29.9,10.9,30.4,10.9,30.9z"/>
</g>
<g>
	<path fill="#F8B721" d="M69,34.3c0,2.4-2.1,4.5-4.1,4.9v-8.3c0-0.5,0-1.1,0-1.6C67.4,29.8,69,31.8,69,34.3z"/>
</g>
<g>
	<path fill="#FFFFFF" d="M38.1,51c-2.4,0-4.4-2-4.9-4H43C42.6,49,40.5,51,38.1,51z"/>
</g>
<g>
	<path fill="#FFFFFF" d="M41.9,70.6c0,2.2-1.8,4-4,4s-4-1.8-4-4v-5c0-2.2,1.8-4,4-4s4,1.8,4,4V70.6z"/>
</g>
<g>
	<circle fill="#FBCCCC" cx="24.3" cy="44.9" r="4"/>
</g>
<g>
	<circle fill="#FBCCCC" cx="51.3" cy="44.9" r="4"/>
</g>
</svg>
